<svg width="256" height="265" viewBox="0 0 256 265" fill="none" xmlns="http://www.w3.org/2000/svg">
<g clip-path="url(#clip0_3_33046)">
<path fill-rule="evenodd" clip-rule="evenodd" d="M156.377 5.34718C157.952 7.30318 158.756 9.94218 160.363 15.2212L195.468 130.541C182.282 123.698 168.129 118.907 153.498 116.332L130.641 39.0922C130.459 38.4761 130.082 37.9355 129.567 37.5514C129.052 37.1672 128.426 36.9601 127.784 36.961C127.141 36.9619 126.517 37.1708 126.003 37.5564C125.489 37.942 125.113 38.4836 124.933 39.1002L102.353 116.293C87.6558 118.856 73.4379 123.655 60.194 130.523L95.471 15.1952C97.083 9.92518 97.889 7.29118 99.465 5.33818C100.856 3.61441 102.665 2.27555 104.72 1.44918C107.048 0.513184 109.804 0.513184 115.315 0.513184H140.511C146.029 0.513184 148.788 0.513184 151.118 1.45118C153.174 2.28072 154.984 3.62179 156.377 5.34718Z" fill="black"/>
<path fill-rule="evenodd" clip-rule="evenodd" d="M160.577 136.029C154.79 140.978 143.239 144.353 129.934 144.353C113.604 144.353 99.917 139.269 96.284 132.431C94.986 136.351 94.695 140.835 94.695 143.7C94.695 143.7 93.839 157.768 103.624 167.552C103.624 166.344 103.862 165.148 104.325 164.032C104.787 162.916 105.465 161.902 106.319 161.048C107.173 160.194 108.188 159.516 109.304 159.054C110.42 158.592 111.616 158.354 112.824 158.354C121.531 158.354 121.521 165.95 121.514 172.114L121.513 172.664C121.513 182.019 127.231 190.039 135.363 193.421C134.111 190.845 133.463 188.017 133.467 185.153C133.467 176.23 138.705 172.907 144.793 169.045C149.638 165.973 155.02 162.56 158.729 155.713C160.727 152.025 161.77 147.895 161.763 143.7C161.765 141.098 161.365 138.51 160.577 136.03V136.029Z" fill="#FF5D01"/>
<path fill-rule="evenodd" clip-rule="evenodd" d="M160.577 136.029C154.79 140.978 143.239 144.353 129.934 144.353C113.604 144.353 99.917 139.269 96.284 132.431C94.986 136.351 94.695 140.835 94.695 143.7C94.695 143.7 93.839 157.768 103.624 167.552C103.624 166.344 103.862 165.148 104.325 164.032C104.787 162.916 105.465 161.902 106.319 161.048C107.173 160.194 108.188 159.516 109.304 159.054C110.42 158.592 111.616 158.354 112.824 158.354C121.531 158.354 121.521 165.95 121.514 172.114L121.513 172.664C121.513 182.019 127.231 190.039 135.363 193.421C134.111 190.845 133.463 188.017 133.467 185.153C133.467 176.23 138.705 172.907 144.793 169.045C149.638 165.973 155.02 162.56 158.729 155.713C160.727 152.025 161.77 147.895 161.763 143.7C161.765 141.098 161.365 138.51 160.577 136.03V136.029Z" fill="url(#paint0_linear_3_33046)"/>
<path fill-rule="evenodd" clip-rule="evenodd" d="M28.014 222.153C43.888 222.153 52.214 227.833 52.214 238.571V249.035C52.22 253.989 52.304 256.739 52.603 259.346L52.665 259.866C52.774 260.732 52.907 261.598 53.07 262.539H45.366C44.977 260.049 44.822 257.325 44.822 254.446C40.231 260.904 32.372 264.017 19.376 264.017C7.626 264.017 0 259.737 0 252.345C0 248.843 1.478 245.808 4.124 243.863C6.926 241.84 10.583 240.439 20.465 239.894L44.744 238.494V237.715C44.744 231.49 38.519 227.833 28.014 227.833C17.353 227.833 10.894 230.868 9.649 236.626H1.48C2.725 228.066 12.685 222.152 28.015 222.152L28.014 222.153ZM86.874 222.153C100.258 222.153 108.895 225.732 112.786 231.802L106.483 234.836C102.748 230.012 97.067 227.833 86.173 227.833C76.602 227.833 72.166 229.934 72.166 233.98C72.166 237.17 75.046 238.65 80.181 239.038L99.091 240.517C109.207 241.373 113.175 244.641 113.175 251.022C113.175 258.726 106.716 264.017 90.609 264.017C76.369 264.017 68.042 259.971 63.295 252.812L69.443 249.466C72.945 255.146 80.181 258.259 91.62 258.259C101.036 258.259 105.783 256.079 105.783 251.489C105.783 248.299 103.915 247.053 97.768 246.586L79.014 245.108C69.754 244.33 64.852 241.062 64.852 234.292C64.852 226.744 73.1 222.152 86.874 222.152V222.153ZM228.064 222.153C244.639 222.153 256 230.556 256 243.085C256 255.613 244.639 264.017 228.064 264.017C211.49 264.017 200.129 255.613 200.129 243.085C200.129 230.556 211.489 222.152 228.064 222.152V222.153ZM136.567 210.48V223.63H156.021V229.467H136.567V247.52C136.567 254.212 140.225 256.858 146.994 256.858C150.184 256.858 153.454 256.391 156.177 255.768V262.072C154.231 262.928 149.796 263.628 146.139 263.628C131.743 263.628 129.097 255.924 129.097 248.221V229.467H116.88V223.631H129.097V213.515L136.567 210.48ZM191.77 222.464C193.87 222.464 195.272 222.541 196.906 222.931V230.09C195.116 229.778 193.793 229.623 191.692 229.623C185.545 229.623 182.043 231.335 179.319 234.369C176.207 237.638 175.117 242.384 175.117 247.987V262.539H167.725V223.631H174.573V234.913C176.829 227.365 183.443 222.463 191.77 222.463V222.464ZM44.744 243.552L21.944 244.952C10.972 245.652 7.859 247.676 7.859 252.189C7.859 256.391 12.839 258.492 21.866 258.492C35.173 258.492 44.744 253.512 44.744 245.342V243.552ZM228.064 228.3C215.847 228.3 207.988 234.058 207.988 243.085C207.988 252.111 215.848 257.87 228.064 257.87C240.204 257.87 248.141 252.111 248.141 243.085C248.141 234.058 240.203 228.3 228.064 228.3Z" fill="black"/>
</g>
<defs>
<linearGradient id="paint0_linear_3_33046" x1="186.634" y1="107.428" x2="157.211" y2="169.023" gradientUnits="userSpaceOnUse">
<stop stop-color="#FF1639"/>
<stop offset="1" stop-color="#FF1639" stop-opacity="0"/>
</linearGradient>
<clipPath id="clip0_3_33046">
<rect width="256" height="264" fill="white" transform="translate(0 0.513184)"/>
</clipPath>
</defs>
</svg>
