<svg width="256" height="295" viewBox="0 0 256 295" fill="none" xmlns="http://www.w3.org/2000/svg">
<path d="M23.2212 260.531L0 0H255.434L232.212 260.531L127.434 289.982" fill="#0C73B8"/>
<path d="M128 267.327L212.389 244.106L232.212 20.9557H128" fill="#30A9DC"/>
<path d="M128 117.805H53.2389L56.0708 150.088H128V117.805ZM128 53.2389H47.5752L50.4071 84.9558H128V53.2389ZM128 201.062L57.7699 182.372L61.7345 216.354L128 234.478V201.062Z" fill="#ECEDEE"/>
<path d="M128 150.088H167.08L163.115 191.434L128 201.062V234.478L193.133 216.354L207.858 53.2389H128V84.9558H173.31L169.912 117.805H128V150.088Z" fill="white"/>
</svg>
