<svg width="256" height="256" viewBox="0 0 256 256" fill="none" xmlns="http://www.w3.org/2000/svg">
<g clip-path="url(#clip0_3_33039)">
<path d="M251.17 116.6L139.4 4.81998C136.308 1.73068 132.116 -0.00463867 127.745 -0.00463867C123.374 -0.00463867 119.182 1.73068 116.09 4.81998L92.88 28.02L122.32 57.47C125.792 56.2854 129.527 56.1005 133.099 56.9365C136.671 57.7725 139.936 59.5957 142.522 62.1981C145.108 64.8005 146.91 68.0772 147.723 71.6545C148.536 75.2319 148.327 78.9657 147.12 82.43L175.49 110.81C179.731 109.352 184.343 109.392 188.558 110.922C192.773 112.452 196.336 115.381 198.653 119.22C200.971 123.058 201.903 127.576 201.294 132.018C200.685 136.461 198.571 140.561 195.306 143.634C192.041 146.707 187.821 148.569 183.35 148.908C178.878 149.248 174.426 148.045 170.734 145.499C167.042 142.954 164.335 139.22 163.062 134.92C161.789 130.621 162.028 126.015 163.74 121.87L137.28 95.4V165.04C141.302 167.029 144.521 170.336 146.4 174.41C148.279 178.484 148.705 183.079 147.607 187.43C146.508 191.78 143.953 195.622 140.365 198.316C136.777 201.01 132.374 202.394 127.891 202.235C123.407 202.077 119.113 200.386 115.724 197.445C112.335 194.505 110.057 190.492 109.269 186.075C108.48 181.658 109.23 177.104 111.392 173.173C113.554 169.241 116.998 166.17 121.15 164.47V94.2C118.754 93.2185 116.577 91.7725 114.743 89.9452C112.909 88.1179 111.455 85.9456 110.465 83.5536C109.475 81.1615 108.968 78.5971 108.974 76.0083C108.98 73.4194 109.499 70.8574 110.5 68.47L81.46 39.44L4.82998 116.08C1.73763 119.172 0.000366211 123.367 0.000366211 127.74C0.000366211 132.113 1.73763 136.308 4.82998 139.4L116.6 251.17C119.692 254.262 123.887 256 128.26 256C132.633 256 136.828 254.262 139.92 251.17L251.17 139.92C254.263 136.826 256 132.63 256 128.255C256 123.88 254.263 119.684 251.17 116.59" fill="#DE4C36"/>
</g>
<defs>
<clipPath id="clip0_3_33039">
<rect width="256" height="256" fill="white"/>
</clipPath>
</defs>
</svg>
