<svg width="256" height="295" viewBox="0 0 256 295" fill="none" xmlns="http://www.w3.org/2000/svg">
<path d="M23.2212 260.531L0 0H255.434L232.212 260.531L127.434 289.982" fill="#E34F26"/>
<path d="M128 267.327L212.389 244.106L232.212 20.9557H128" fill="#EF652A"/>
<path d="M128 117.805H85.5221L82.6902 84.9558H128V53.2389H47.5752L56.0708 150.088H128V117.805ZM128 201.062L91.7522 191.434L89.4867 165.947H57.7699L61.7345 216.354L128 234.478V201.062Z" fill="#ECEDEE"/>
<path d="M128 150.088H167.08L163.115 191.434L128 201.062V234.478L193.133 216.354L202.195 117.805H128V150.088ZM128 53.2389V84.9558H205.027L207.858 53.2389H128Z" fill="white"/>
</svg>
