<svg width="256" height="222" viewBox="0 0 256 222" fill="none" xmlns="http://www.w3.org/2000/svg">
<g clip-path="url(#clip0_3_33052)">
<path d="M215.8 151.1C216.863 150.475 217.745 149.583 218.358 148.514C218.972 147.444 219.297 146.233 219.3 145L219.5 103.8C219.5 101.3 220.8 98.9 223 97.7L245.3 84.9C246.377 84.2664 247.602 83.9283 248.852 83.9198C250.101 83.9113 251.331 84.2327 252.416 84.8516C253.502 85.4704 254.405 86.3648 255.034 87.4444C255.663 88.5239 255.997 89.7505 256 91V165.8C256 168.4 254.6 170.8 252.4 172L168.2 220.4C167.133 221.005 165.927 221.323 164.7 221.323C163.473 221.323 162.267 221.005 161.2 220.4L95 182.6C93.9038 181.979 92.9926 181.077 92.36 179.988C91.7273 178.898 91.396 177.66 91.4 176.4V138.7H91.5V138.6L91.6 138.5L146.1 107.2V107.1H146V70C146.004 68.7567 145.681 67.5341 145.064 66.4546C144.448 65.3751 143.558 64.4765 142.485 63.8487C141.411 63.221 140.192 62.8861 138.949 62.8775C137.706 62.869 136.482 63.1871 135.4 63.8L95.1 87.2C94.0207 87.8232 92.7963 88.1512 91.55 88.1512C90.3037 88.1512 89.0793 87.8232 88 87.2L47.4 63.8C46.3157 63.162 45.0813 62.8236 43.8232 62.8194C42.5651 62.8152 41.3285 63.1454 40.2399 63.7762C39.1514 64.4069 38.25 65.3156 37.628 66.4092C37.006 67.5028 36.6857 68.742 36.7 70V136.8C36.704 138.043 36.3814 139.266 35.7644 140.345C35.1475 141.425 34.258 142.324 33.1847 142.951C32.1115 143.579 30.8922 143.914 29.6489 143.922C28.4055 143.931 27.1818 143.613 26.1 143L3.6 130C2.5329 129.396 1.64044 128.526 1.00955 127.474C0.378664 126.423 0.0308545 125.226 0 124L0.2 7.1C0.185713 5.84198 0.505957 4.60276 1.12795 3.50917C1.74995 2.41559 2.65136 1.50691 3.73992 0.876157C4.82848 0.245402 6.06509 -0.0847778 7.32319 -0.0805881C8.58128 -0.0763983 9.81567 0.262011 10.9 0.900001L87.9 45.2C88.9911 45.8419 90.2341 46.1804 91.5 46.1804C92.7659 46.1804 94.0089 45.8419 95.1 45.2L172 1C173.084 0.362011 174.319 0.0236017 175.577 0.0194119C176.835 0.0152222 178.072 0.345402 179.16 0.976157C180.249 1.60691 181.15 2.51559 181.772 3.60917C182.394 4.70276 182.714 5.94198 182.7 7.2V124C182.7 126.5 181.4 128.9 179.1 130.1L139 153.4C137.92 154.023 137.023 154.919 136.4 155.999C135.776 157.079 135.448 158.303 135.448 159.55C135.448 160.797 135.776 162.021 136.4 163.101C137.023 164.181 137.92 165.077 139 165.7L161.3 178.4C162.367 179.005 163.573 179.323 164.8 179.323C166.027 179.323 167.233 179.005 168.3 178.4L215.9 151.1H215.8ZM220.4 46.3C220.411 47.556 220.754 48.7868 221.396 49.8667C222.037 50.9466 222.954 51.837 224.052 52.447C225.15 53.057 226.39 53.3648 227.646 53.339C228.902 53.3131 230.128 52.9546 231.2 52.3L252.5 39.6C253.563 38.9747 254.445 38.0834 255.058 37.0138C255.672 35.9442 255.997 34.7332 256 33.5V7.4C256.007 6.13548 255.677 4.89199 255.042 3.79806C254.408 2.70413 253.493 1.79946 252.392 1.17757C251.291 0.555683 250.044 0.239139 248.779 0.260663C247.515 0.282186 246.279 0.640996 245.2 1.3L224 14.1C222.952 14.7166 222.079 15.5921 221.466 16.6428C220.853 17.6934 220.521 18.8839 220.5 20.1V46.3H220.4Z" fill="#007FFF"/>
</g>
<defs>
<clipPath id="clip0_3_33052">
<rect width="256" height="222" fill="white"/>
</clipPath>
</defs>
</svg>
