<svg width="256" height="308" viewBox="0 0 256 308" fill="none" xmlns="http://www.w3.org/2000/svg">
<g clip-path="url(#clip0_3_33034)">
<path d="M239.682 40.707C211.113 -0.182022 154.69 -12.301 113.895 13.69L42.247 59.356C32.5682 65.4451 24.2662 73.4867 17.872 82.9668C11.4777 92.4469 7.13181 103.157 5.11204 114.412C1.69407 133.371 4.69793 152.929 13.648 169.988C7.51508 179.291 3.33215 189.741 1.35204 200.707C-0.688931 212.189 -0.416631 223.963 2.15297 235.338C4.72256 246.713 9.53773 257.461 16.316 266.951C44.89 307.844 101.313 319.958 142.103 293.967L213.751 248.303C223.431 242.214 231.733 234.173 238.128 224.693C244.522 215.212 248.867 204.502 250.886 193.246C254.303 174.287 251.302 154.73 242.356 137.669C248.487 128.366 252.668 117.916 254.646 106.951C256.688 95.4691 256.417 83.695 253.847 72.3195C251.278 60.9439 246.462 50.1962 239.683 40.707" fill="#FF3E00"/>
<path d="M106.889 270.841C83.7869 276.848 59.3919 267.805 45.7859 248.193C41.7077 242.485 38.8105 236.019 37.2645 229.176C35.7185 222.333 35.5548 215.25 36.7829 208.343C37.1989 206.075 37.7712 203.839 38.4959 201.65L39.8459 197.535L43.5169 200.232C51.997 206.463 61.4785 211.2 71.5529 214.239L74.2159 215.047L73.9709 217.706C73.6453 221.488 74.6691 225.263 76.8609 228.362C78.8599 231.246 81.6959 233.448 84.9858 234.669C88.2758 235.89 91.8613 236.072 95.2579 235.19C96.8158 234.774 98.3007 234.121 99.6609 233.255L171.331 187.583C173.085 186.479 174.589 185.021 175.749 183.304C176.908 181.586 177.697 179.645 178.065 177.606C178.433 175.524 178.382 173.39 177.916 171.328C177.451 169.265 176.579 167.317 175.352 165.595C173.352 162.71 170.515 160.508 167.224 159.286C163.933 158.065 160.346 157.882 156.948 158.763C155.393 159.179 153.91 159.831 152.552 160.696L125.202 178.13C120.705 180.989 115.797 183.145 110.649 184.521C87.5479 190.528 63.1519 181.485 49.5479 161.872C45.4694 156.164 42.5721 149.699 41.0259 142.856C39.4797 136.013 39.3158 128.93 40.5439 122.023C41.7587 115.253 44.373 108.811 48.2198 103.109C52.0666 97.4067 57.0612 92.5704 62.8839 88.909L134.548 43.232C139.047 40.3681 143.958 38.2104 149.111 36.834C172.212 30.827 196.608 39.87 210.212 59.482C214.29 65.1903 217.188 71.6556 218.734 78.4987C220.28 85.3418 220.444 92.4247 219.216 99.332C218.798 101.599 218.226 103.835 217.503 106.024L216.153 110.14L212.483 107.447C204.004 101.213 194.522 96.4737 184.446 93.434L181.782 92.625L182.028 89.967C182.351 86.1854 181.327 82.4113 179.138 79.311C177.139 76.4265 174.303 74.2251 171.013 73.004C167.722 71.7829 164.137 71.6011 160.74 72.483C159.182 72.8994 157.698 73.552 156.338 74.418L84.6679 120.092C82.9142 121.195 81.4099 122.652 80.2511 124.37C79.0922 126.087 78.3044 128.028 77.9379 130.067C77.5681 132.149 77.6173 134.283 78.0824 136.346C78.5476 138.408 79.4194 140.357 80.6469 142.079C82.6471 144.964 85.4842 147.166 88.7752 148.387C92.0662 149.609 95.6528 149.792 99.0509 148.911C100.608 148.494 102.093 147.841 103.453 146.976L130.798 129.549C135.293 126.686 140.201 124.528 145.35 123.152C168.451 117.146 192.847 126.189 206.452 145.802C210.53 151.51 213.427 157.975 214.973 164.818C216.519 171.661 216.683 178.743 215.455 185.65C214.24 192.421 211.625 198.863 207.778 204.566C203.932 210.269 198.937 215.107 193.115 218.77L121.451 264.443C116.952 267.307 112.041 269.465 106.888 270.841" fill="white"/>
</g>
<defs>
<clipPath id="clip0_3_33034">
<rect width="256" height="308" fill="white"/>
</clipPath>
</defs>
</svg>
